<svg data-v-423bf9ae="" xmlns="http://www.w3.org/2000/svg" viewBox="0 0 357.03373414087764 60" class="font"><!----><!----><!----><g data-v-423bf9ae="" id="9932da0d-43dd-47cf-8adf-37a9f7396483" fill="black" transform="matrix(4.494382381439209,0,0,4.494382381439209,-0.9887823462486267,-14.741576194763184)"><path d="M0.22 6.29C0.22 6.55 0.39 6.64 0.50 6.64C0.71 6.64 0.77 6.44 0.80 6.33C1.08 5.24 1.02 5.04 1.72 5.04L6.24 5.04C6.41 5.04 6.44 5.14 6.44 5.19C6.44 5.25 6.44 5.28 6.24 5.50C4.14 7.83 2.16 10.30 0.34 12.88C0.28 12.95 0.22 13.03 0.22 13.15C0.22 13.43 0.52 13.44 0.62 13.44L0.64 13.44L7.97 13.44C8.53 13.37 8.41 12.73 8.51 11.72C8.58 11.13 8.68 10.85 8.68 10.26L8.68 10.25C8.68 9.97 8.47 9.86 8.34 9.86C8.19 9.86 8.11 9.95 8.08 10.00C7.98 10.19 7.91 11.05 7.74 11.45C7.39 12.28 6.69 12.31 5.67 12.31L5.38 12.31C4.91 12.31 4.45 12.29 4.00 12.26C2.93 12.19 2.60 12.18 2.60 11.87C2.60 11.79 2.65 11.70 2.67 11.66C3.30 10.54 4.10 9.53 4.91 8.55L6.94 6.01C8.11 4.48 8.20 4.38 8.20 4.24C8.20 4.14 8.15 3.99 7.87 3.99L1.76 3.99C1.37 3.99 1.06 3.84 0.99 3.61C0.94 3.49 0.85 3.28 0.63 3.28C0.50 3.28 0.34 3.36 0.34 3.67L0.34 4.19C0.34 5.45 0.22 6.08 0.22 6.29ZM10.09 16.56C10.50 16.56 10.79 16.21 11.13 15.69C12.15 14.14 13.01 12.18 13.64 10.65C14.62 8.22 14.45 8.22 14.74 8.18C15.19 8.12 15.29 8.13 15.29 7.91C15.29 7.76 15.29 7.63 15.12 7.63C15.02 7.63 14.70 7.67 14.06 7.67L14.04 7.67C13.38 7.67 13.05 7.63 12.95 7.63C12.78 7.63 12.68 7.73 12.68 7.88C12.68 8.09 12.82 8.13 12.95 8.15C13.41 8.19 13.62 8.13 13.62 8.47C13.62 8.93 13.20 10.02 12.47 11.76C12.45 11.79 12.42 11.90 12.33 11.90C12.26 11.90 12.24 11.84 12.24 11.82C11.28 10.02 10.71 8.50 10.71 8.37C10.71 8.22 10.82 8.19 10.92 8.18C11.34 8.13 11.44 8.16 11.44 7.85C11.44 7.74 11.41 7.63 11.26 7.63C11.14 7.63 10.81 7.67 10.15 7.67C9.49 7.67 9.16 7.63 9.06 7.63C8.90 7.63 8.86 7.73 8.86 7.87C8.86 8.33 9.17 8.04 9.39 8.33C9.42 8.37 9.91 9.28 10.16 9.76C11.31 12.05 11.72 12.92 11.72 13.23C11.72 13.62 11.14 14.50 10.78 14.84C10.26 15.33 9.55 15.50 9.55 16.06C9.55 16.34 9.79 16.56 10.09 16.56ZM18.86 13.06C18.54 13.06 18.21 12.98 17.93 12.84C17.57 12.67 17.57 12.53 17.57 12.40L17.57 9.39C17.57 8.99 17.67 8.75 17.98 8.53C18.34 8.25 18.72 8.23 18.90 8.23C20.02 8.23 21.07 9.35 21.07 10.71C21.07 12.11 19.99 13.06 18.86 13.06ZM19.36 7.41C19.25 7.41 19.15 7.41 19.04 7.42C17.95 7.57 17.50 8.33 17.43 8.33C17.40 8.33 17.39 8.29 17.39 8.25L17.39 7.42C17.39 7.34 17.36 7.27 17.28 7.27C17.21 7.27 17.18 7.31 17.04 7.38C15.57 8.25 15.54 8.23 15.54 8.32L15.54 8.33C15.54 8.43 15.57 8.41 16.48 8.82C16.65 8.89 16.66 9.03 16.66 9.10L16.66 9.13L16.66 15.60C16.66 15.83 16.58 15.95 16.35 15.99C15.71 16.13 15.54 16.10 15.54 16.35C15.54 16.59 15.68 16.63 15.76 16.63C15.83 16.63 16.60 16.52 17.63 16.52C18.41 16.52 18.82 16.58 18.94 16.58C19.07 16.58 19.11 16.48 19.11 16.37C19.11 15.93 18.83 16.02 17.99 15.93C17.70 15.90 17.68 15.71 17.68 15.57L17.68 15.53L17.68 13.61C17.68 13.51 17.70 13.45 17.78 13.45C17.81 13.45 18.20 13.54 18.68 13.54C20.62 13.54 22.01 12.29 22.01 10.43C22.01 8.81 20.92 7.41 19.36 7.41ZM26.38 13.33C26.38 13.43 26.40 13.52 26.53 13.52C26.57 13.52 27.12 13.44 27.79 13.44C28.49 13.44 29.02 13.52 29.06 13.52C29.18 13.52 29.25 13.47 29.25 13.22C29.25 13.02 29.12 12.98 29.01 12.96C28.66 12.92 28.49 12.91 28.49 12.52C28.43 9.90 28.36 9.46 28.08 8.81C27.76 8.06 27.13 7.53 26.21 7.53C25.26 7.53 24.64 8.05 24.56 8.05C24.53 8.05 24.49 8.04 24.49 7.95L24.50 3.64C24.50 3.42 24.37 3.37 24.29 3.37L24.28 3.37C24.18 3.37 24.16 3.40 22.67 4.27C22.64 4.28 22.44 4.37 22.44 4.54C22.44 4.90 23.37 4.77 23.44 5.12C23.45 5.21 23.49 7.42 23.49 8.55L23.49 8.61C23.49 9.90 23.46 11.19 23.42 12.46C23.41 12.66 23.41 12.88 23.09 12.94C22.69 13.02 22.57 13.01 22.57 13.24C22.57 13.37 22.57 13.52 22.74 13.52C22.78 13.52 23.34 13.44 24.05 13.44C24.74 13.44 25.30 13.52 25.34 13.52C25.47 13.52 25.49 13.36 25.49 13.23C25.49 12.73 24.56 13.17 24.44 12.57C24.42 12.47 24.42 9.20 24.42 9.11C24.42 9.04 24.42 8.99 24.43 8.93C24.50 8.65 25.05 8.25 25.65 8.25C26.10 8.25 26.50 8.47 26.78 8.75C27.13 9.13 27.45 9.67 27.45 11.69C27.45 12.75 27.45 12.87 27.17 12.91C26.56 12.99 26.38 12.94 26.38 13.23ZM29.78 10.56C29.78 12.95 31.33 13.71 32.48 13.71C33.47 13.71 34.38 13.20 34.96 12.46C35.03 12.38 35.06 12.29 35.06 12.24C35.06 12.11 34.96 12.03 34.83 12.03C34.69 12.03 34.58 12.15 34.51 12.22C34.08 12.64 33.46 12.91 32.84 12.91C31.08 12.91 30.77 11.05 30.77 10.88C30.77 10.75 30.86 10.77 33.75 9.77C34.16 9.63 34.89 9.49 34.89 9.07L34.89 9.06C34.89 8.93 34.83 8.82 34.78 8.75C34.26 8.04 33.33 7.41 32.37 7.41C30.97 7.41 29.78 8.60 29.78 10.56ZM33.53 9.10C33.53 9.16 33.49 9.23 33.40 9.27C33.38 9.28 30.83 10.28 30.79 10.28C30.76 10.28 30.72 10.26 30.72 10.18C30.72 8.93 31.25 8.18 32.06 8.18C32.84 8.18 33.53 8.93 33.53 9.10ZM37.23 8.16C37.20 8.16 37.18 8.13 37.18 8.09L37.18 7.53C37.18 7.41 37.17 7.25 37.02 7.25C36.97 7.25 36.93 7.28 36.89 7.29C35.43 8.01 35.42 7.98 35.42 8.05C35.43 8.11 35.46 8.13 35.48 8.15C36.13 8.62 36.25 8.61 36.25 8.89L36.25 12.60C36.25 12.81 36.19 12.89 35.99 12.94C35.62 13.03 35.36 12.95 35.36 13.29C35.36 13.43 35.45 13.52 35.59 13.52C35.63 13.52 36.23 13.44 37.02 13.44C37.77 13.44 38.39 13.52 38.43 13.52C38.61 13.52 38.63 13.36 38.63 13.24C38.63 12.92 38.44 12.98 37.60 12.91C37.27 12.88 37.25 12.64 37.25 12.49L37.25 12.43L37.25 9.07C37.25 8.97 37.25 8.90 37.31 8.82C37.39 8.69 37.95 8.25 38.40 8.25C38.86 8.25 38.88 8.60 39.23 8.60C39.47 8.60 39.65 8.41 39.80 8.32C39.91 8.22 40.17 8.06 40.18 7.83L40.18 7.81C40.18 7.42 39.54 7.20 39.09 7.20C38.93 7.20 38.81 7.21 38.68 7.25C38.30 7.39 37.28 8.16 37.23 8.16ZM45.63 13.44C46.55 13.44 47.01 13.52 47.17 13.52C47.35 13.52 47.47 13.40 47.47 13.22C47.47 12.94 47.29 12.89 47.17 12.88C46.58 12.81 46.28 12.82 46.28 12.43C46.28 12.15 46.82 10.68 47.50 9.41C47.59 9.25 47.67 9.24 47.82 9.24L51.11 9.24C51.24 9.24 51.31 9.25 51.37 9.38C51.91 10.63 52.42 12.29 52.42 12.54C52.42 12.78 52.21 12.80 52.14 12.81C51.46 12.89 51.31 12.85 51.31 13.29C51.31 13.43 51.39 13.52 51.59 13.52C51.76 13.52 52.25 13.44 53.26 13.44C54.11 13.44 54.81 13.52 54.87 13.52C55.05 13.52 55.15 13.40 55.15 13.22C55.15 13.19 55.13 13.09 55.12 13.03C55.03 12.70 54.42 13.01 54.07 12.49C53.98 12.36 54.04 12.45 52.51 8.74L50.50 4.09C50.44 3.95 50.27 3.56 49.91 3.56C49.78 3.56 49.67 3.60 49.57 3.67C49.41 3.81 49.50 3.67 47.40 7.66C46.65 9.14 45.93 10.64 45.26 12.14C45.05 12.61 44.91 12.75 44.46 12.81C44.04 12.87 43.83 12.85 43.83 13.23C43.83 13.34 43.89 13.52 44.11 13.52C44.16 13.52 44.80 13.44 45.63 13.44ZM50.83 8.51L47.96 8.51C47.91 8.51 47.88 8.48 47.88 8.46C47.88 8.37 48.44 7.29 49.31 5.67C49.36 5.57 49.45 5.43 49.57 5.43C49.64 5.43 49.69 5.46 49.73 5.53C49.94 5.87 50.96 8.27 50.96 8.41C50.96 8.50 50.90 8.51 50.83 8.51ZM55.64 9.11C55.64 9.80 56.06 10.50 57.19 10.82C57.64 10.95 58.87 11.09 58.87 12.01C58.87 12.57 58.37 12.95 57.74 12.95C56.92 12.95 56.28 12.42 56.14 12.12C55.94 11.73 56.17 11.26 55.82 11.26C55.61 11.26 55.57 11.33 55.57 11.69C55.57 11.89 55.58 12.15 55.58 12.53C55.58 12.74 55.61 12.85 55.75 13.01C56.15 13.48 57.04 13.71 57.68 13.71C59.07 13.71 59.81 12.71 59.81 11.82C59.81 11.59 59.75 11.13 59.39 10.71C58.87 10.11 58.21 10.07 57.50 9.87C56.46 9.58 56.39 9.06 56.39 8.86C56.39 8.41 56.80 8.12 57.27 8.12C57.74 8.12 58.24 8.41 58.42 8.67C58.62 8.95 58.58 9.35 58.87 9.35C58.98 9.35 59.19 9.31 59.19 9.13C59.19 9.07 59.01 8.15 58.93 7.66C58.91 7.59 58.87 7.39 58.70 7.39C58.53 7.39 58.48 7.53 58.35 7.53C58.28 7.53 58.07 7.46 57.65 7.46C56.39 7.46 55.64 8.27 55.64 9.11ZM60.37 9.11C60.37 9.80 60.79 10.50 61.92 10.82C62.37 10.95 63.60 11.09 63.60 12.01C63.60 12.57 63.10 12.95 62.47 12.95C61.66 12.95 61.01 12.42 60.87 12.12C60.68 11.73 60.90 11.26 60.55 11.26C60.34 11.26 60.30 11.33 60.30 11.69C60.30 11.89 60.31 12.15 60.31 12.53C60.31 12.74 60.34 12.85 60.48 13.01C60.89 13.48 61.77 13.71 62.41 13.71C63.80 13.71 64.54 12.71 64.54 11.82C64.54 11.59 64.48 11.13 64.12 10.71C63.60 10.11 62.94 10.07 62.23 9.87C61.19 9.58 61.12 9.06 61.12 8.86C61.12 8.41 61.53 8.12 62.01 8.12C62.47 8.12 62.97 8.41 63.15 8.67C63.35 8.95 63.31 9.35 63.60 9.35C63.71 9.35 63.92 9.31 63.92 9.13C63.92 9.07 63.74 8.15 63.66 7.66C63.64 7.59 63.60 7.39 63.43 7.39C63.27 7.39 63.21 7.53 63.08 7.53C63.01 7.53 62.80 7.46 62.38 7.46C61.12 7.46 60.37 8.27 60.37 9.11ZM64.97 10.56C64.97 12.95 66.53 13.71 67.68 13.71C68.67 13.71 69.58 13.20 70.15 12.46C70.22 12.38 70.25 12.29 70.25 12.24C70.25 12.11 70.15 12.03 70.03 12.03C69.89 12.03 69.78 12.15 69.71 12.22C69.27 12.64 68.66 12.91 68.04 12.91C66.28 12.91 65.97 11.05 65.97 10.88C65.97 10.75 66.05 10.77 68.95 9.77C69.36 9.63 70.08 9.49 70.08 9.07L70.08 9.06C70.08 8.93 70.03 8.82 69.97 8.75C69.45 8.04 68.53 7.41 67.56 7.41C66.16 7.41 64.97 8.60 64.97 10.56ZM68.73 9.10C68.73 9.16 68.68 9.23 68.60 9.27C68.57 9.28 66.02 10.28 65.98 10.28C65.95 10.28 65.91 10.26 65.91 10.18C65.91 8.93 66.44 8.18 67.26 8.18C68.04 8.18 68.73 8.93 68.73 9.10ZM70.95 8.33L71.40 8.33C71.48 8.33 71.50 8.39 71.50 8.46C71.50 8.76 71.44 10.93 71.44 11.55C71.44 11.70 71.44 11.84 71.46 12.00C71.55 13.31 72.31 13.71 72.87 13.71C73.64 13.71 74.33 13.01 74.82 12.45C74.84 12.40 74.91 12.32 74.91 12.21C74.91 12.08 74.82 11.96 74.66 11.96C74.35 11.96 73.81 12.80 73.14 12.80C72.55 12.80 72.42 12.25 72.42 11.76C72.42 11.42 72.42 11.10 72.44 8.48C72.44 8.39 72.48 8.36 72.58 8.36L74.21 8.36C74.34 8.36 74.41 8.34 74.47 8.29C74.54 8.20 74.59 7.97 74.59 7.88C74.59 7.62 74.35 7.62 74.23 7.62C74.19 7.62 74.16 7.60 74.12 7.60L72.86 7.60C72.69 7.60 72.58 7.56 72.58 7.32C72.58 7.13 72.59 6.54 72.59 6.34C72.59 6.16 72.49 6.12 72.41 6.12C72.25 6.12 72.17 6.30 72.13 6.37C71.37 7.66 70.67 7.91 70.67 8.15C70.67 8.32 70.83 8.33 70.95 8.33ZM75.49 9.11C75.49 9.80 75.91 10.50 77.04 10.82C77.49 10.95 78.72 11.09 78.72 12.01C78.72 12.57 78.22 12.95 77.59 12.95C76.78 12.95 76.13 12.42 75.99 12.12C75.80 11.73 76.02 11.26 75.67 11.26C75.46 11.26 75.42 11.33 75.42 11.69C75.42 11.89 75.43 12.15 75.43 12.53C75.43 12.74 75.46 12.85 75.60 13.01C76.01 13.48 76.89 13.71 77.53 13.71C78.92 13.71 79.66 12.71 79.66 11.82C79.66 11.59 79.60 11.13 79.24 10.71C78.72 10.11 78.06 10.07 77.35 9.87C76.31 9.58 76.24 9.06 76.24 8.86C76.24 8.41 76.65 8.12 77.13 8.12C77.59 8.12 78.09 8.41 78.27 8.67C78.47 8.95 78.43 9.35 78.72 9.35C78.83 9.35 79.04 9.31 79.04 9.13C79.04 9.07 78.86 8.15 78.78 7.66C78.76 7.59 78.72 7.39 78.55 7.39C78.39 7.39 78.33 7.53 78.20 7.53C78.13 7.53 77.92 7.46 77.50 7.46C76.24 7.46 75.49 8.27 75.49 9.11Z"></path></g><!----><!----></svg>