<svg data-v-423bf9ae="" xmlns="http://www.w3.org/2000/svg" viewBox="0 0 289 90" class="iconLeft"><!----><!----><!----><g data-v-423bf9ae="" id="4ce8058a-2245-41fa-af04-17b50a1b0145" fill="black" transform="matrix(4.966529846191406,0,0,4.966529846191406,109.40400695800781,-2.0848605632781982)"><path d="M1.67 6.56L0.57 7.81L3.83 7.81L0.12 12.68L4.77 12.67L5.60 11.46L1.61 11.46L5.28 6.56L1.67 6.56ZM11.53 12.19L11.53 12.19L11.53 6.49L10.20 7.03L10.20 11.16Q9.69 11.79 8.73 11.74Q7.77 11.69 7.68 10.73L7.68 10.73L7.69 6.51L6.39 7.17L6.39 10.96Q6.39 11.91 7.05 12.35Q7.72 12.80 8.45 12.68Q9.17 12.56 10.26 11.48L10.26 11.48L10.26 13.11Q10.30 14.06 9.96 14.39Q9.62 14.72 8.81 14.63Q8.00 14.53 7.17 13.36L7.17 13.36L6.32 14.57Q8.20 16.19 9.87 15.05Q11.54 13.90 11.53 12.19ZM14.05 14.64L12.80 15.11L12.80 6.95L14.05 6.54L14.04 7.26Q15.31 6.08 16.63 6.64Q17.94 7.19 18.35 8.53Q18.76 9.87 17.92 11.08Q17.09 12.29 16.00 12.62Q14.91 12.95 14.04 12.44L14.04 12.44L14.05 14.64ZM15.71 11.87Q16.60 12.05 17.20 11.34Q17.80 10.63 17.41 9.41Q17.03 8.19 16.06 7.75Q15.09 7.31 14.05 7.73L14.05 7.73L14.04 11.33L14.32 11.07Q14.82 11.70 15.71 11.87ZM20.60 3.44L19.33 3.95L19.33 12.73L20.66 12.17L20.66 8.05Q21.30 7.22 22.29 7.44Q23.28 7.66 23.24 8.69L23.24 8.69L23.24 12.77L24.53 12.24L24.53 8.32Q24.47 6.56 23.04 6.47Q21.62 6.38 20.60 7.73L20.60 7.73L20.60 3.44ZM28.82 6.51Q27.74 6.35 26.80 7.19Q25.86 8.03 25.60 9.15Q25.33 10.27 25.68 11.09Q26.03 11.91 26.61 12.28Q27.19 12.66 27.99 12.71Q28.78 12.76 29.55 12.08Q30.32 11.41 30.78 10.54L30.78 10.54L30.68 10.47Q29.63 11.57 28.55 11.52Q27.47 11.47 27.13 10.85L27.13 10.85L29.07 9.78Q30.52 8.81 30.21 7.75Q29.91 6.68 28.82 6.51ZM26.61 8.16Q26.84 7.66 27.46 7.40Q28.07 7.14 28.62 7.68Q29.16 8.21 28.99 8.90Q28.83 9.60 26.92 10.57L26.92 10.57Q26.61 10.04 26.49 9.35Q26.37 8.67 26.61 8.16ZM32.78 6.51L31.51 7.03L31.51 12.73L32.83 12.12L32.83 8.05Q33.48 7.22 34.06 7.37Q34.65 7.53 34.73 8.26L34.73 8.26L35.96 7.46Q35.82 6.62 34.81 6.50Q33.79 6.38 32.77 7.73L32.77 7.73L32.78 6.51Z"></path></g><!----><g data-v-423bf9ae="" id="7ccc1caa-701b-4314-8945-726c8f1ad79e" transform="matrix(2.8125,0,0,2.8125,0,0)" stroke="none" fill="black"><path d="M16 32c8.837 0 16-7.163 16-16S24.837 0 16 0 0 7.163 0 16s7.163 16 16 16zM14.817 6.421h2v8.886h8.887v2H14.817V6.421zm-5.959.437h2v14.283h14.283v2H8.858V6.858z"></path></g><!----></svg>